<svg width="32" height="24" viewBox="0 0 32 24" fill="none" xmlns="http://www.w3.org/2000/svg">
<path d="M5 17C4.46957 17 3.96086 17.2107 3.58579 17.5858C3.21071 17.9609 3 18.4696 3 19C3 19.5304 3.21071 20.0391 3.58579 20.4142C3.96086 20.7893 4.46957 21 5 21C5.53043 21 6.03914 20.7893 6.41421 20.4142C6.78929 20.0391 7 19.5304 7 19C7 18.4696 6.78929 17.9609 6.41421 17.5858C6.03914 17.2107 5.53043 17 5 17ZM9.76875 17.5H30.5C31.3312 17.5 32 18.1688 32 19C32 19.8312 31.3312 20.5 30.5 20.5H9.76875C9.13125 22.5312 7.2375 24 5 24C2.2375 24 0 21.7625 0 19C0 16.2375 2.2375 14 5 14C7.2375 14 9.13125 15.4688 9.76875 17.5ZM25 5C25 5.53043 25.2107 6.03914 25.5858 6.41421C25.9609 6.78929 26.4696 7 27 7C27.5304 7 28.0391 6.78929 28.4142 6.41421C28.7893 6.03914 29 5.53043 29 5C29 4.46957 28.7893 3.96086 28.4142 3.58579C28.0391 3.21071 27.5304 3 27 3C26.4696 3 25.9609 3.21071 25.5858 3.58579C25.2107 3.96086 25 4.46957 25 5ZM22.2313 3.5C22.8688 1.46875 24.7625 0 27 0C29.7625 0 32 2.2375 32 5C32 7.7625 29.7625 10 27 10C24.7625 10 22.8688 8.53125 22.2313 6.5H1.5C0.66875 6.5 0 5.83125 0 5C0 4.16875 0.66875 3.5 1.5 3.5H22.2313Z" fill="#CDCDCD"/>
</svg>
