<?xml version="1.0" encoding="utf-8"?>
<!-- Generator: Adobe Illustrator 27.3.1, SVG Export Plug-In . SVG Version: 6.00 Build 0)  -->
<svg version="1.1" id="svg" xmlns="http://www.w3.org/2000/svg" xmlns:xlink="http://www.w3.org/1999/xlink" x="0px" y="0px"
	 viewBox="0 0 1080 1080" style="enable-background:new 0 0 1080 1080;" xml:space="preserve">
<style type="text/css">
	.st0{fill:#0093F5;}
</style>
<g>
	<path class="st0" d="M246.11,738.21l-66.89-68.84v66.59h-33.67V599.05h12.27l66.89,68.54v-66.29h33.67v136.92H246.11z"/>
	<path class="st0" d="M274.84,778.62l30.68-61.8l-35.91-72.88h36.81l11.07,24.09c1.2,2.49,2.32,5.01,3.37,7.56s2.02,5.31,2.92,8.31
		c1-2.99,1.99-5.76,2.99-8.31c1-2.54,2.1-5.06,3.29-7.56l11.37-24.09h35.31l-65.99,134.68H274.84z"/>
	<path class="st0" d="M420.74,738.96c-6.28,0-12.3-1.52-18.03-4.56c-5.74-3.04-10.38-7.53-13.92-13.47
		c-3.54-5.93-5.31-13.09-5.31-21.47v-55.52h32.77v51.48c0,3.89,1.2,7.26,3.59,10.1c2.39,2.84,5.59,4.27,9.58,4.27
		c2.49,0,4.74-0.57,6.73-1.72c1.99-1.15,3.59-2.77,4.79-4.86c1.2-2.1,1.8-4.64,1.8-7.63v-51.63h32.77v92.03h-28.43v-8.98
		c-3.29,3.89-7.21,6.86-11.75,8.9C430.79,737.94,425.92,738.96,420.74,738.96z"/>
	<path class="st0" d="M492.56,735.97v-92.03h28.28v8.53c3.59-3.79,7.65-6.66,12.2-8.6c4.54-1.95,9.4-2.92,14.59-2.92
		c4.99,0,9.7,0.95,14.14,2.84c4.44,1.9,8.25,4.69,11.45,8.38c3.69-3.79,8.06-6.61,13.09-8.45c5.04-1.85,10.45-2.77,16.24-2.77
		c6.38,0,12.42,1.5,18.11,4.49c5.69,2.99,10.32,7.38,13.92,13.17c3.59,5.79,5.39,12.87,5.39,21.25v56.11h-32.77v-52.22
		c0-3.79-1.1-7.01-3.29-9.65c-2.2-2.64-5.19-3.97-8.98-3.97c-2.1,0-4.09,0.52-5.99,1.57c-1.9,1.05-3.42,2.57-4.57,4.56
		c-1.15,2-1.72,4.44-1.72,7.33v52.37h-32.77v-52.22c0-2.49-0.5-4.79-1.5-6.88c-1-2.09-2.42-3.74-4.27-4.94
		c-1.85-1.2-4.02-1.8-6.51-1.8c-2.09,0-4.09,0.52-5.98,1.57c-1.9,1.05-3.42,2.57-4.56,4.56c-1.15,2-1.72,4.44-1.72,7.33v52.37
		H492.56z"/>
	<path class="st0" d="M709.69,738.21c-5.29,0-10.13-0.85-14.52-2.54c-4.39-1.7-8.28-4.14-11.67-7.33v7.63h-27.83V592.31h32.32v55.22
		c2.99-1.89,6.26-3.34,9.8-4.34c3.54-1,7.31-1.5,11.3-1.5c6.29,0,12.22,1.22,17.81,3.67c5.59,2.44,10.45,5.89,14.59,10.32
		c4.14,4.44,7.38,9.58,9.73,15.41c2.34,5.84,3.52,12.1,3.52,18.78c0,6.68-1.17,12.97-3.52,18.85c-2.34,5.89-5.56,11.02-9.65,15.41
		c-4.09,4.39-8.88,7.83-14.37,10.33C721.71,736.96,715.88,738.21,709.69,738.21z M704.9,709.18c3.59,0,6.81-0.85,9.65-2.54
		c2.84-1.7,5.11-3.99,6.81-6.88c1.7-2.89,2.54-6.14,2.54-9.73c0-3.69-0.85-6.98-2.54-9.88c-1.7-2.89-3.97-5.21-6.81-6.96
		c-2.84-1.74-6.01-2.62-9.5-2.62c-3.49,0-6.69,0.87-9.58,2.62c-2.89,1.75-5.16,4.07-6.81,6.96c-1.65,2.89-2.47,6.14-2.47,9.73
		c0,3.59,0.82,6.86,2.47,9.8c1.65,2.94,3.89,5.26,6.73,6.96C698.24,708.34,701.41,709.18,704.9,709.18z"/>
	<path class="st0" d="M817.88,738.96c-7.98,0-15.26-1.2-21.85-3.59s-12.27-5.81-17.06-10.25c-4.79-4.44-8.45-9.67-11-15.71
		c-2.54-6.03-3.82-12.69-3.82-19.98c0-6.98,1.22-13.44,3.67-19.38c2.44-5.93,5.91-11.07,10.4-15.41c4.49-4.34,9.7-7.71,15.64-10.1
		c5.93-2.39,12.39-3.59,19.38-3.59c9.28,0,17.51,2.07,24.69,6.21c7.18,4.14,12.84,9.78,16.98,16.91c4.14,7.13,6.21,15.29,6.21,24.47
		v10.33h-52.97c-2.1,0-4.24-0.12-6.43-0.37c-2.2-0.25-4.44-0.52-6.73-0.82c1.1,3.19,2.74,5.91,4.94,8.16
		c2.19,2.24,4.94,3.99,8.23,5.24c3.29,1.25,6.98,1.87,11.07,1.87c5.19,0,9.97-0.9,14.37-2.69c4.39-1.8,8.03-4.19,10.92-7.18
		l6.58,26.34c-4.39,3.09-9.45,5.46-15.19,7.11C830.17,738.14,824.16,738.96,817.88,738.96z M794.39,679.85
		c2.19-0.3,4.44-0.57,6.73-0.82c2.29-0.25,4.44-0.37,6.43-0.37h10.03c2.19,0,4.51,0.1,6.96,0.3c2.44,0.2,4.66,0.45,6.66,0.75
		c-0.9-2.99-2.22-5.56-3.97-7.71c-1.75-2.14-3.84-3.76-6.28-4.86c-2.45-1.1-5.16-1.65-8.16-1.65c-2.99,0-5.71,0.57-8.16,1.72
		c-2.45,1.15-4.54,2.77-6.29,4.86C796.61,674.17,795.28,676.76,794.39,679.85z"/>
	<path class="st0" d="M873.4,735.97v-92.03h28.28v12.12c2.99-4.39,6.63-7.73,10.92-10.03c4.29-2.29,9.18-3.44,14.66-3.44l7.18,29.18
		c-1.1-0.4-2.24-0.67-3.44-0.82c-1.2-0.15-2.39-0.22-3.59-0.22c-4.29,0-8.03,1-11.22,2.99c-3.19,2-5.66,4.84-7.41,8.53
		c-1.75,3.69-2.62,8.13-2.62,13.32v40.4H873.4z"/>
</g>
<g id="concept_2">
	<g>
		<g>
			<path class="st0" d="M480.34,348.16c-8.21,8.21-8.21,21.51,0,29.71c8.21,8.21,21.51,8.21,29.71,0c8.21-8.21,8.21-21.51,0-29.71
				C501.85,339.96,488.55,339.96,480.34,348.16z M678.91,302.85l-135.96-82.12c-1.51-0.91-3.39-0.91-4.9,0l-135.96,82.12
				c-1.42,0.86-2.29,2.4-2.29,4.06v228.86c0,2.62,2.12,4.74,4.74,4.74h271.92c2.62,0,4.74-2.12,4.74-4.74V306.9
				C681.2,305.24,680.33,303.7,678.91,302.85z M640.26,470.36l-5.42,33.22c-0.2,1.22-1.17,2.15-2.4,2.3l-31.57,3.86
				c-0.85,0.1-1.69-0.19-2.29-0.79l-4.96-4.96c-0.59-0.59-0.88-1.4-0.8-2.23l1.34-13.59c0.08-0.82-0.21-1.64-0.8-2.23l-5.41-5.41
				c-0.6-0.6-1.45-0.89-2.29-0.79l-13.19,1.6c-0.84,0.1-1.69-0.19-2.29-0.79l-4.25-4.25c-0.59-0.59-0.88-1.4-0.8-2.23l1.34-13.59
				c0.08-0.82-0.21-1.64-0.8-2.23l-5.41-5.41c-0.6-0.6-1.45-0.89-2.29-0.79l-13.19,1.6c-0.84,0.1-1.69-0.19-2.29-0.79l-16.57-16.57
				c-23.13,8.46-50.13,3.25-68.48-15.66c-22.64-23.35-21.85-60.3-0.37-84.73c24.99-28.43,65.95-32,92.24-5.71
				c27.74,29.94,16.25,63.84,16.25,63.84l73.92,73.92C640.11,468.58,640.4,469.48,640.26,470.36z"/>
		</g>
	</g>
</g>
</svg>
