<svg width="32" height="24" viewBox="0 0 32 24" fill="none" xmlns="http://www.w3.org/2000/svg">
<path d="M4 3C3.45 3 3 3.45 3 4V5.38125L13.7812 14.2313C15.075 15.2938 16.9312 15.2938 18.225 14.2313L29 5.38125V4C29 3.45 28.55 3 28 3H4ZM3 9.2625V20C3 20.55 3.45 21 4 21H28C28.55 21 29 20.55 29 20V9.2625L20.125 16.55C17.725 18.5187 14.2688 18.5187 11.875 16.55L3 9.2625ZM0 4C0 1.79375 1.79375 0 4 0H28C30.2062 0 32 1.79375 32 4V20C32 22.2062 30.2062 24 28 24H4C1.79375 24 0 22.2062 0 20V4Z" fill="#CDCDCD"/>
</svg>
