<svg width="29" height="24" viewBox="0 0 29 24" fill="none" xmlns="http://www.w3.org/2000/svg">
<path d="M6.28396 2.25C5.65182 2.25 5.14289 2.69531 5.14289 3.24844V12H24H26.5715H27C27.7125 12 28.2857 12.5016 28.2857 13.125C28.2857 13.7484 27.7125 14.25 27 14.25H26.5715H24H5.14289H2.57146H2.14289C1.43039 14.25 0.857178 13.7484 0.857178 13.125C0.857178 12.5016 1.43039 12 2.14289 12H2.57146V3.24844C2.57146 1.45313 4.23218 0 6.28396 0C7.26968 0 8.21253 0.342187 8.90896 0.951562L9.16611 1.17656C9.76075 0.904688 10.4358 0.75 11.1482 0.75C12.4286 0.75 13.5804 1.24219 14.3679 2.025C14.8607 1.77656 15.4983 1.8375 15.9161 2.20781C16.4197 2.64844 16.4197 3.36094 15.9161 3.79688L10.3393 8.67188C9.83575 9.1125 9.02146 9.1125 8.52325 8.67188C8.10539 8.30625 8.03575 7.74844 8.31432 7.31719C7.41968 6.62813 6.85718 5.62031 6.85718 4.5C6.85718 3.87188 7.03396 3.28594 7.34468 2.76562L7.08753 2.54063C6.87325 2.35313 6.58396 2.25 6.28396 2.25ZM2.57146 15.75H5.14289V17.25C5.14289 18.4922 6.29468 19.5 7.71432 19.5H21.4286C22.8482 19.5 24 18.4922 24 17.25V15.75H26.5715V17.25C26.5715 18.5812 25.9072 19.7812 24.8572 20.6063V22.875C24.8572 23.4984 24.284 24 23.5715 24C22.859 24 22.2857 23.4984 22.2857 22.875V21.6891C22.0072 21.7313 21.7232 21.75 21.4286 21.75H7.71432C7.41968 21.75 7.13575 21.7266 6.85718 21.6891V22.875C6.85718 23.4984 6.28396 24 5.57146 24C4.85896 24 4.28575 23.4984 4.28575 22.875V20.6063C3.23575 19.7812 2.57146 18.5812 2.57146 17.25V15.75ZM11.1429 3C10.1947 3 9.42861 3.67031 9.42861 4.5C9.42861 4.9875 9.69111 5.41875 10.1036 5.69531L12.5036 3.59531C12.1929 3.22969 11.7 3 11.1429 3Z" fill="#CDCDCD"/>
</svg>
