<svg width="24" height="24" viewBox="0 0 24 24" fill="none" xmlns="http://www.w3.org/2000/svg">
<path d="M1.70777 16.9085L0.62848 20.5731L0.0466005 22.5532C-0.0707138 22.9521 0.0372154 23.3791 0.328155 23.67C0.619094 23.9609 1.04612 24.0688 1.44029 23.9562L3.42525 23.3697L7.09015 22.2905C7.67203 22.1216 8.20229 21.826 8.65747 21.4271C8.72317 21.3708 8.78417 21.3098 8.84518 21.2488L23.12 6.97971C24.1477 5.95211 24.2744 4.37082 23.5048 3.20245C23.3968 3.03822 23.2655 2.87869 23.12 2.73323L21.2711 0.879795C20.098 -0.293265 18.1975 -0.293265 17.0243 0.879795L2.74952 15.1536C2.2615 15.6416 1.90486 16.2469 1.70777 16.9085ZM3.86636 17.5419C3.94613 17.2792 4.07752 17.0352 4.26053 16.8287C4.28869 16.8006 4.31215 16.7724 4.34031 16.7443L15.0628 6.02718L17.9722 8.93637L7.25439 19.6581C7.03384 19.8787 6.75698 20.0429 6.45666 20.1321L5.35859 20.4558L2.78706 21.2113L3.54257 18.6399L3.86636 17.5419Z" fill="white"/>
</svg>
