<svg width="24" height="22" viewBox="0 0 24 22" fill="none" xmlns="http://www.w3.org/2000/svg">
<path d="M10.1719 17.7969L16.1719 11.7969C16.6125 11.3562 16.6125 10.6438 16.1719 10.2078L10.1719 4.20312C9.73125 3.7625 9.01875 3.7625 8.58281 4.20312C8.14688 4.64375 8.14219 5.35625 8.58281 5.79219L12.6609 9.87031L1.125 9.875C0.501562 9.875 0 10.3766 0 11C0 11.6234 0.501562 12.125 1.125 12.125H12.6609L8.58281 16.2031C8.14219 16.6437 8.14219 17.3562 8.58281 17.7922C9.02344 18.2281 9.73594 18.2328 10.1719 17.7922V17.7969ZM16.125 2.75H19.875C20.9109 2.75 21.75 3.58906 21.75 4.625V17.375C21.75 18.4109 20.9109 19.25 19.875 19.25H16.125C15.5016 19.25 15 19.7516 15 20.375C15 20.9984 15.5016 21.5 16.125 21.5H19.875C22.1531 21.5 24 19.6531 24 17.375V4.625C24 2.34688 22.1531 0.5 19.875 0.5H16.125C15.5016 0.5 15 1.00156 15 1.625C15 2.24844 15.5016 2.75 16.125 2.75Z" fill="#5A5A5A"/>
</svg>
