<svg width="112" height="28" viewBox="0 0 112 28" fill="none" xmlns="http://www.w3.org/2000/svg">
<path d="M14.2321 21.7424L4.76525 11.8905V21.4204H0V1.82684H1.73655L11.2034 11.6358V2.14884H15.9686V21.7438H14.2321V21.7424Z" fill="black"/>
<path d="M18.2982 27.5256L22.6403 18.6812L17.558 8.25117H22.7676L24.3343 11.6988C24.5042 12.0551 24.6627 12.4158 24.8113 12.7807C24.9599 13.1456 25.0972 13.5406 25.2246 13.97C25.3661 13.542 25.5062 13.1456 25.6477 12.7807C25.7893 12.4172 25.9449 12.0565 26.1134 11.6988L27.7225 8.25117H32.7199L23.3804 27.5256H18.2982Z" fill="black"/>
<path d="M38.9471 21.8497C38.0583 21.8497 37.2063 21.6322 36.3954 21.1971C35.583 20.7621 34.9263 20.1195 34.4253 19.2694C33.9243 18.4208 33.6738 17.3961 33.6738 16.1968V8.25117H38.3117V15.6186C38.3117 16.1753 38.4815 16.6576 38.8198 17.064C39.158 17.4705 39.6109 17.6751 40.1756 17.6751C40.528 17.6751 40.8464 17.5936 41.1281 17.429C41.4097 17.2644 41.6362 17.0326 41.806 16.7335C41.9758 16.4329 42.0607 16.0694 42.0607 15.6415V8.2526H46.6986V21.4233H42.675V20.1381C42.2093 20.6948 41.6546 21.1199 41.012 21.4118C40.3695 21.7038 39.6802 21.8497 38.9471 21.8497Z" fill="black"/>
<path d="M49.1117 21.4218V8.25117H53.1141V9.47192C53.6222 8.92952 54.1968 8.51879 54.8407 8.24115C55.4833 7.96208 56.1711 7.82327 56.9056 7.82327C57.6119 7.82327 58.2785 7.95922 58.9068 8.2297C59.5352 8.50161 60.0744 8.9009 60.5273 9.42899C61.0496 8.88659 61.6681 8.48301 62.3799 8.21968C63.0932 7.95492 63.8589 7.82327 64.6784 7.82327C65.5813 7.82327 66.4361 8.03793 67.2414 8.46584C68.0467 8.89375 68.702 9.52201 69.2115 10.3506C69.7196 11.1793 69.9743 12.1925 69.9743 13.3918V21.4218H65.3365V13.9485C65.3365 13.4061 65.1808 12.9453 64.8708 12.5674C64.5595 12.1896 64.1363 11.9993 63.5999 11.9993C63.3027 11.9993 63.0211 12.0737 62.7522 12.224C62.4833 12.3742 62.2681 12.5918 62.1054 12.8766C61.9426 13.1628 61.862 13.512 61.862 13.9256V21.4204H57.2241V13.9471C57.2241 13.5907 57.1533 13.2615 57.0118 12.9624C56.8703 12.6633 56.6693 12.4272 56.4075 12.2555C56.1456 12.0837 55.8385 11.9979 55.4861 11.9979C55.1903 11.9979 54.9073 12.0723 54.6398 12.2225C54.3709 12.3728 54.1557 12.5903 53.9944 12.8751C53.8316 13.1614 53.751 13.5106 53.751 13.9242V21.419H49.1117V21.4218Z" fill="black"/>
<path d="M79.8417 21.7424C79.093 21.7424 78.408 21.6208 77.7867 21.3789C77.1654 21.1356 76.6148 20.7864 76.1351 20.3299V21.4218H72.1963V0.862259H76.7705V8.76495C77.1937 8.49446 77.6565 8.28695 78.1575 8.14383C78.6585 8.00072 79.1921 7.92916 79.7568 7.92916C80.647 7.92916 81.4862 8.10376 82.2774 8.45439C83.0685 8.80358 83.7564 9.29732 84.3423 9.93131C84.9282 10.5667 85.3868 11.3023 85.7193 12.1367C86.0505 12.9725 86.2175 13.8683 86.2175 14.8243C86.2175 15.7803 86.0519 16.6805 85.7193 17.522C85.3882 18.3649 84.9325 19.0991 84.3536 19.7274C83.7748 20.3556 83.0968 20.848 82.3198 21.2057C81.5429 21.5635 80.7177 21.7424 79.8417 21.7424ZM79.1638 17.5878C79.6719 17.5878 80.1276 17.4662 80.5295 17.2243C80.9315 16.981 81.2527 16.6533 81.4933 16.2397C81.7339 15.8261 81.8528 15.361 81.8528 14.8472C81.8528 14.3192 81.7325 13.8483 81.4933 13.4333C81.2527 13.0197 80.9315 12.6877 80.5295 12.4372C80.1276 12.1882 79.6789 12.0623 79.185 12.0623C78.6911 12.0623 78.2382 12.1868 77.8292 12.4372C77.4201 12.6877 77.0989 13.0197 76.8653 13.4333C76.6318 13.8469 76.5158 14.312 76.5158 14.8258C76.5158 15.3395 76.6318 15.8075 76.8653 16.2283C77.0989 16.649 77.4159 16.981 77.8178 17.2243C78.2212 17.4676 78.6698 17.5878 79.1638 17.5878Z" fill="black"/>
<path d="M95.1536 21.8497C94.0242 21.8497 92.9939 21.678 92.0612 21.336C91.1286 20.9939 90.3247 20.5045 89.6467 19.8691C88.9688 19.2336 88.4508 18.4852 88.0899 17.6208C87.7305 16.7578 87.5493 15.8047 87.5493 14.7614C87.5493 13.7624 87.722 12.8379 88.0687 11.9878C88.414 11.1392 88.9051 10.4036 89.5406 9.78248C90.1761 9.16137 90.9134 8.67907 91.7541 8.33703C92.5934 7.995 93.5076 7.82327 94.4969 7.82327C95.8103 7.82327 96.9751 8.1195 97.9913 8.71199C99.0074 9.30448 99.8085 10.1116 100.394 11.132C100.98 12.1524 101.273 13.3202 101.273 14.634V16.1124H93.7765C93.4793 16.1124 93.1765 16.0952 92.8665 16.0594C92.5552 16.0236 92.2381 15.985 91.914 15.942C92.0697 16.3986 92.3018 16.7878 92.6132 17.1099C92.9231 17.4304 93.3123 17.6809 93.778 17.8598C94.2436 18.0387 94.7658 18.1274 95.3447 18.1274C96.0792 18.1274 96.7557 17.9986 97.3784 17.7424C97.9997 17.4848 98.5149 17.1428 98.9239 16.7149L99.8552 20.4844C99.2339 20.9267 98.5177 21.2658 97.7054 21.502C96.893 21.7324 96.0424 21.8497 95.1536 21.8497ZM91.8291 13.3903C92.1391 13.3474 92.4575 13.3088 92.7816 13.273C93.1057 13.2372 93.41 13.22 93.6916 13.22H95.1112C95.4211 13.22 95.7494 13.2344 96.0962 13.263C96.4415 13.2916 96.7557 13.3274 97.0388 13.3703C96.9114 12.9424 96.7246 12.5746 96.4769 12.2669C96.2292 11.9607 95.9334 11.7288 95.5881 11.5714C95.2414 11.414 94.8578 11.3352 94.4332 11.3352C94.0101 11.3352 93.6251 11.4168 93.2784 11.5814C92.9316 11.746 92.6358 11.9778 92.3882 12.2769C92.1433 12.5775 91.9551 12.9481 91.8291 13.3903Z" fill="black"/>
<path d="M103.011 21.4218V8.25117H107.014V9.98569C107.437 9.35743 107.952 8.87944 108.559 8.55028C109.166 8.22255 109.858 8.05797 110.634 8.05797L111.65 12.234C111.494 12.1768 111.333 12.1381 111.163 12.1166C110.993 12.0952 110.825 12.0852 110.655 12.0852C110.048 12.0852 109.519 12.2283 109.067 12.5131C108.616 12.7993 108.266 13.2057 108.019 13.7338C107.771 14.2619 107.648 14.8973 107.648 15.6401V21.4218H103.011Z" fill="black"/>
</svg>
