<svg width="28" height="24" viewBox="0 0 28 24" fill="none" xmlns="http://www.w3.org/2000/svg">
<path d="M1.71429 2.57143V9.31071C2.49107 8.89821 3.36429 8.64643 4.28571 8.58214V8.56607V6.85714C4.28571 5.90893 5.05179 5.14286 6 5.14286H11.1429C12.0911 5.14286 12.8571 5.90893 12.8571 6.85714V8.57143H14.5714V6.85714C14.5714 5.90893 15.3375 5.14286 16.2857 5.14286H21.4286C22.3768 5.14286 23.1429 5.90893 23.1429 6.85714V8.57143V8.5875C24.0643 8.64643 24.9375 8.90357 25.7143 9.31607V2.57143C25.7143 1.15179 24.5625 0 23.1429 0H4.28571C2.86607 0 1.71429 1.15179 1.71429 2.57143ZM4.71429 10.2857C2.11071 10.2857 0 12.3964 0 15V19.2857V22.7143C0 23.4268 0.573214 24 1.28571 24C1.99821 24 2.57143 23.4268 2.57143 22.7143V20.5714H24.8571V22.7143C24.8571 23.4268 25.4304 24 26.1429 24C26.8554 24 27.4286 23.4268 27.4286 22.7143V19.2857V15C27.4286 12.3964 25.3179 10.2857 22.7143 10.2857H4.71429ZM24.8571 18H2.57143V15C2.57143 13.8161 3.53036 12.8571 4.71429 12.8571H22.7143C23.8982 12.8571 24.8571 13.8161 24.8571 15V18Z" fill="#CDCDCD"/>
</svg>
