<svg width="22" height="24" viewBox="0 0 22 24" fill="none" xmlns="http://www.w3.org/2000/svg">
<path d="M7.25 6V9H14.75V6C14.75 3.92812 13.0719 2.25 11 2.25C8.92813 2.25 7.25 3.92812 7.25 6ZM5 9V6C5 2.68594 7.68594 0 11 0C14.3141 0 17 2.68594 17 6V9H18.5C20.1547 9 21.5 10.3453 21.5 12V21C21.5 22.6547 20.1547 24 18.5 24H3.5C1.84531 24 0.5 22.6547 0.5 21V12C0.5 10.3453 1.84531 9 3.5 9H5ZM2.75 12V21C2.75 21.4125 3.0875 21.75 3.5 21.75H18.5C18.9125 21.75 19.25 21.4125 19.25 21V12C19.25 11.5875 18.9125 11.25 18.5 11.25H3.5C3.0875 11.25 2.75 11.5875 2.75 12Z" fill="#5A5A5A"/>
</svg>
