<svg width="40" height="46" viewBox="0 0 40 46" fill="none" xmlns="http://www.w3.org/2000/svg">
<path d="M39.5019 11.8501L20.2598 0.0976744C20.046 -0.0325581 19.78 -0.0325581 19.5663 0.0976744L0.324101 11.8501C0.123131 11.9732 0 12.1936 0 12.4311V45.1839C0 45.5589 0.300043 45.8623 0.670846 45.8623H39.1552C39.526 45.8623 39.826 45.5589 39.826 45.1839V12.4297C39.826 12.1921 39.7029 11.9717 39.5019 11.8501ZM34.0319 35.8229L33.2648 40.5771C33.2365 40.7517 33.0992 40.8848 32.9251 40.9063L28.4571 41.4587C28.3368 41.473 28.2179 41.4315 28.133 41.3456L27.431 40.6358C27.3475 40.5513 27.3064 40.4354 27.3178 40.3166L27.5074 38.3717C27.5187 38.2544 27.4777 38.137 27.3942 38.0526L26.6285 37.2784C26.5436 37.1925 26.4233 37.151 26.3044 37.1653L24.4377 37.3943C24.3188 37.4086 24.1985 37.3671 24.1136 37.2812L23.5121 36.673C23.4286 36.5886 23.3875 36.4726 23.3988 36.3539L23.5885 34.409C23.5998 34.2916 23.5588 34.1742 23.4753 34.0898L22.7096 33.3156C22.6247 33.2297 22.5044 33.1882 22.3855 33.2025L20.5188 33.4315C20.3999 33.4458 20.2796 33.4043 20.1946 33.3184L17.8495 30.9471C14.576 32.1578 10.7547 31.4122 8.15768 28.7059C4.95349 25.3642 5.06529 20.0762 8.10532 16.58C11.6421 12.5113 17.4391 12.0004 21.1599 15.7628C25.0859 20.0476 23.4597 24.8991 23.4597 24.8991L33.9215 35.478C34.0106 35.5682 34.0517 35.697 34.0319 35.8229ZM11.3987 18.3345C10.2367 19.5095 10.2367 21.4129 11.3987 22.5864C12.5606 23.7614 14.4429 23.7614 15.6035 22.5864C16.7654 21.4115 16.7654 19.5081 15.6035 18.3345C14.4429 17.161 12.5606 17.161 11.3987 18.3345Z" fill="black"/>
</svg>
