<svg width="40" height="41" viewBox="0 0 40 41" fill="none" xmlns="http://www.w3.org/2000/svg">
<path fill-rule="evenodd" clip-rule="evenodd" d="M11.3324 40.5H28.6656C35.4462 40.5 40 35.7438 40 28.6666V12.3334C40 5.25623 35.4462 0.5 28.6676 0.5H11.3324C4.55379 0.5 0 5.25623 0 12.3334V28.6666C0 35.7438 4.55379 40.5 11.3324 40.5ZM12.9976 18.5001C10.2403 18.5001 7.99987 16.2566 7.99987 13.5001C7.99987 10.7435 10.2403 8.50007 12.9976 8.50007C15.7529 8.50007 17.9953 10.7435 17.9953 13.5001C17.9953 16.2566 15.7529 18.5001 12.9976 18.5001ZM35.6416 26.368C36.3113 28.0852 35.9634 30.1492 35.2474 31.8499C34.3987 33.8726 32.7737 35.4041 30.7263 36.0728C29.8173 36.37 28.864 36.5 27.9127 36.5H11.0572C9.37994 36.5 7.89571 36.0976 6.67896 35.3483C5.91674 34.8778 5.78199 33.7921 6.34712 33.0883C7.29237 31.9118 8.22554 30.7312 9.16676 29.5403C10.9607 27.2617 12.1694 26.6012 13.5129 27.1812C14.0579 27.4206 14.6049 27.7797 15.168 28.1595C16.6684 29.1791 18.7539 30.5805 21.5012 29.0594C23.3812 28.0064 24.4716 26.2003 25.4211 24.6275L25.437 24.6012C25.5043 24.4908 25.571 24.3805 25.6375 24.2705C25.9566 23.7425 26.2714 23.2215 26.6276 22.7415C27.0741 22.1409 28.7292 20.2627 30.8731 21.6002C32.2387 22.4423 33.3871 23.5816 34.6159 24.8014C35.0845 25.2679 35.4183 25.7983 35.6416 26.368Z" fill="#0192F5"/>
</svg>
