<svg width="22" height="24" viewBox="0 0 22 24" fill="none" xmlns="http://www.w3.org/2000/svg">
<path d="M10.9999 0C10.1702 0 9.49993 0.670312 9.49993 1.5V2.4C6.07805 3.09375 3.49993 6.12187 3.49993 9.75V10.9406C3.49993 13.0687 2.77337 15.1359 1.4468 16.7953L0.748366 17.6719C0.476491 18.0094 0.424928 18.4734 0.612428 18.8625C0.799928 19.2516 1.19368 19.5 1.62493 19.5H20.3749C20.8062 19.5 21.1999 19.2516 21.3874 18.8625C21.5749 18.4734 21.5234 18.0094 21.2515 17.6719L20.5531 16.8C19.2265 15.1359 18.4999 13.0687 18.4999 10.9406V9.75C18.4999 6.12187 15.9218 3.09375 12.4999 2.4V1.5C12.4999 0.670312 11.8296 0 10.9999 0ZM10.9999 4.5C13.9015 4.5 16.2499 6.84844 16.2499 9.75V10.9406C16.2499 13.1859 16.9015 15.375 18.1109 17.25H3.88899C5.09837 15.375 5.74993 13.1859 5.74993 10.9406V9.75C5.74993 6.84844 8.09837 4.5 10.9999 4.5ZM13.9999 21H10.9999H7.99993C7.99993 21.7969 8.31399 22.5609 8.87649 23.1234C9.43899 23.6859 10.2031 24 10.9999 24C11.7968 24 12.5609 23.6859 13.1234 23.1234C13.6859 22.5609 13.9999 21.7969 13.9999 21Z" fill="#5A5A5A"/>
</svg>
